<svg width="173" height="184" viewBox="0 0 173 184" fill="none" xmlns="http://www.w3.org/2000/svg">
<g clip-path="url(#clip0_234_5)">
<path d="M121.927 178.664C123.123 178.485 125.383 179.58 126.676 179.849C129.99 180.541 133.117 180.765 136.488 180.716C133.421 182.056 130.424 182.943 127.167 183.509C122.032 184.389 117.011 183.542 111.889 183.057C115.397 182.027 118.658 180.366 121.927 178.664Z" fill="#345253"/>
<path d="M50.0082 178.488C53.4882 180.027 56.8829 181.75 60.3872 183.24C55.9663 183.887 51.8496 184.221 47.38 183.842C43.4336 183.122 40.0753 182.242 36.3926 180.5C41.138 180.683 45.5305 180.284 50.0082 178.488Z" fill="#345253"/>
<path d="M20.1328 169.336C25.8192 170.618 31.5826 170.81 37.2973 169.576C40.1162 172.011 42.9594 174.246 45.9364 176.441C43.8395 177.031 41.6534 177.312 39.4956 177.398C31.9679 177.695 25.6285 174.934 20.1328 169.336Z" fill="#345253"/>
<path d="M135.592 169.348C141.1 170.733 147.342 170.468 152.829 169.137C149.398 172.182 146.076 174.352 141.956 176.075C136.764 177.976 131.22 177.834 125.955 176.433C129.301 174.466 132.436 171.673 135.592 169.348Z" fill="#345253"/>
<path d="M8.07031 153.395C9.93602 154.062 11.7855 155.28 13.5863 156.163C17.9464 158.313 22.2578 159.16 26.9992 159.482C29.2461 162.136 31.6756 164.616 34.097 167.075C30.7225 167.462 27.3317 167.421 24.0181 166.562C17.0622 164.762 11.8261 159.978 8.07031 153.395Z" fill="#345253"/>
<path d="M164.084 153.48L164.283 153.969C162.774 156.481 161.095 158.863 159.011 160.834C153.531 166.009 146.474 167.662 139.445 167.051L138.979 166.843C139.518 165.378 144.276 161.021 145.504 159.572C152.493 158.725 157.81 156.909 164.084 153.48Z" fill="#345253"/>
<path d="M0.332088 130.188C4.45693 137.704 8.78862 142.598 16.7017 144.853C17.1762 145.871 17.6873 146.873 18.2307 147.85C18.7742 148.827 19.3502 149.78 19.9545 150.712C20.5629 151.645 21.1997 152.549 21.8648 153.428C22.534 154.308 23.2276 155.159 23.9536 155.977C18.0117 155.602 11.7413 152.076 7.6043 147.439C3.77554 143.143 0.315865 136.356 0.332088 130.188Z" fill="#345253"/>
<path d="M172.383 130.477C172.391 130.513 172.404 130.55 172.412 130.591C173.008 134.047 170.116 140.366 168.38 143.261C163.647 151.181 157.089 154.092 148.973 155.932C148.956 155.297 154.854 146.775 155.851 145.126C163.298 142.362 168.222 137.797 172.383 130.477Z" fill="#345253"/>
<path d="M2.01538 97.5898C3.28487 107.309 5.09785 116.511 8.20872 125.745C9.04829 128.233 14.0938 138.42 13.9681 140.008L13.3516 139.939C9.14969 137.634 6.18078 134.393 3.98248 129.837C-0.953537 119.593 -0.925145 108.485 2.01538 97.5898Z" fill="#345253"/>
<path d="M170.814 97.5781C173.313 105.367 173.735 114.3 171.747 122.276C169.78 130.175 166.118 135.88 159.62 139.915C159 140.244 159.312 140.171 158.695 140.187C159.081 137.191 163.863 127.903 165.124 124.092C168.004 115.367 169.431 106.678 170.814 97.5781Z" fill="#345253"/>
<path d="M164.73 86.5743C163.676 64.2863 156.111 46.0374 142.865 29.47C140.691 26.7461 138.817 23.9774 136.355 21.5304C121.892 7.19015 101.969 -1.15664 82.4442 0.129985C82.3509 0.138129 82.2576 0.150343 82.1603 0.162558C63.9493 1.46547 44.8582 10.0403 32.6622 25.4717C29.312 29.7061 25.755 34.0546 22.851 38.6677C11.4498 56.7742 6.87886 78.5288 8.36332 100.377C8.41199 101.126 8.47688 101.871 8.54583 102.62C8.60667 103.37 8.68373 104.115 8.77296 104.856C8.85408 105.605 8.94736 106.346 9.04876 107.091C9.15016 107.832 9.26372 108.573 9.37323 109.306C9.49085 110.047 9.61659 110.788 9.75043 111.521C9.88833 112.254 10.0343 112.991 10.1844 113.724C10.3345 114.457 10.4927 115.185 10.663 115.914C10.8252 116.643 11.0037 117.368 11.1822 118.089C11.3687 118.817 11.5594 119.538 11.7581 120.251C11.9609 120.971 12.1677 121.684 12.3786 122.396C12.5977 123.109 12.8248 123.817 13.0519 124.522C13.2831 125.23 13.5305 125.926 13.7739 126.627C14.0253 127.327 14.2768 128.027 14.5404 128.719C14.8041 129.412 15.0758 130.1 15.3557 130.784C15.6315 131.468 15.9194 132.148 16.2155 132.828C16.5116 133.508 16.8117 134.18 17.12 134.843C17.4282 135.515 17.7486 136.179 18.0691 136.838C18.3935 137.502 18.7302 138.153 19.0668 138.805C19.4075 139.456 19.7523 140.1 20.1092 140.743C20.462 141.386 20.819 142.017 21.188 142.657C21.5571 143.288 21.9303 143.911 22.3115 144.534C22.6928 145.157 23.0821 145.775 23.4796 146.382C23.873 146.993 24.2827 147.595 24.6923 148.198C25.102 148.793 25.5157 149.391 25.9415 149.977C26.3634 150.568 26.7973 151.146 27.2273 151.724C27.6653 152.298 28.1074 152.872 28.5576 153.434C29.0037 154.004 29.4621 154.558 29.9204 155.112C30.3868 155.665 30.8492 156.207 31.3278 156.744C31.7983 157.286 32.2809 157.819 32.7636 158.344C33.2462 158.87 33.741 159.383 34.2399 159.896C34.7347 160.409 35.2377 160.914 35.7446 161.414C36.2516 161.915 36.7667 162.404 37.2899 162.888C37.7483 163.316 38.2066 163.748 38.677 164.163C39.1435 164.586 39.614 164.993 40.0844 165.405C40.563 165.812 41.0376 166.215 41.5202 166.602C42.0029 166.997 42.4936 167.383 42.9844 167.766C43.4752 168.149 43.97 168.519 44.4729 168.89C44.9758 169.256 45.4788 169.623 45.9858 169.977C46.4928 170.331 47.0038 170.677 47.5189 171.015C48.034 171.353 48.5531 171.695 49.0764 172.021C49.6036 172.347 50.1228 172.664 50.6582 172.978C51.1854 173.295 51.7208 173.601 52.2521 173.898C52.7915 174.195 53.331 174.488 53.8704 174.769C54.418 175.054 54.9615 175.331 55.509 175.6C56.0565 175.869 56.6081 176.133 57.1679 176.39C57.7195 176.646 58.2792 176.895 58.8389 177.131C59.3986 177.375 59.9624 177.607 60.5261 177.831C61.0899 178.059 61.6577 178.275 62.2256 178.483C62.7974 178.698 63.3693 178.898 63.9412 179.093C64.5171 179.289 65.089 179.48 65.6731 179.663C66.249 179.843 66.829 180.01 67.413 180.176C67.9971 180.343 68.5811 180.494 69.1652 180.649C69.7492 180.795 70.3373 180.938 70.9214 181.072C71.5095 181.202 72.1016 181.329 72.6898 181.447C73.2779 181.565 73.8781 181.675 74.4662 181.781C75.0624 181.887 75.6587 181.976 76.2549 182.066C76.8511 182.147 77.4473 182.224 78.0435 182.294C78.6397 182.371 79.236 182.432 79.8322 182.481C80.4365 182.538 81.0327 182.587 81.633 182.619C82.2292 182.66 82.8335 182.689 83.4338 182.717C84.03 182.738 84.6343 182.75 85.2346 182.758C85.8308 182.766 86.4352 182.766 87.0354 182.75C87.6398 182.742 88.236 182.721 88.8363 182.701C89.4325 182.672 90.0368 182.64 90.6371 182.595C110.912 181.589 129.789 170.563 143.364 154.139C158.768 135.507 165.906 111.574 164.73 86.5743ZM139.446 32.5888C140.074 33.4968 140.281 34.5269 140.078 35.6385C139.766 37.3974 138.667 38.4764 137.337 39.3559C135.816 39.5309 134.36 39.4739 133.155 38.3013C132.376 37.5481 132.019 36.4854 132.011 35.3575C132.003 33.3991 133.017 32.1084 134.238 30.834C134.98 30.7566 135.743 30.667 136.485 30.7363C137.718 30.8503 138.699 31.5058 139.446 32.5888ZM32.4999 34.2297C32.5121 34.0994 32.5324 33.961 32.5567 33.8266C32.581 33.6963 32.6054 33.562 32.6459 33.4398C33.0921 31.8274 34.1101 31.1882 35.3999 30.5042C36.0975 30.4757 36.7667 30.4472 37.4603 30.5938C38.677 30.8503 39.7032 31.6687 40.34 32.8453C40.8753 33.8062 41.0011 34.9463 40.7212 36.0334C40.2872 37.7231 39.3544 38.5537 38.0078 39.3721C37.3629 39.3803 36.6897 39.4006 36.0569 39.2459C34.7144 38.9283 33.6031 37.8901 32.942 36.5709C32.8852 36.4528 32.8285 36.3306 32.7798 36.2044C32.7352 36.0782 32.6906 35.9561 32.654 35.8298C32.6175 35.6995 32.5851 35.5652 32.5608 35.4349C32.5364 35.3046 32.5161 35.1702 32.504 35.0399C32.4918 34.9015 32.4837 34.7712 32.4837 34.6328C32.4878 34.4984 32.4918 34.36 32.4999 34.2297ZM29.3242 35.2191C29.6811 36.5627 30.0339 37.886 30.6869 39.0993C31.6806 40.9356 33.1489 42.4381 35.0876 42.8737C37.1155 43.3257 39.326 42.7353 40.9808 41.3835C42.7248 39.9625 43.7631 37.8249 43.9619 35.4552C44.1322 33.4968 43.6901 31.4732 42.4734 29.9912C40.6198 27.7192 38.0808 27.1777 35.4688 26.9415C49.3359 12.8334 64.7118 4.59654 83.7258 3.6275C84.6911 3.59492 85.6605 3.58678 86.6258 3.59492C87.5911 3.60714 88.5604 3.64378 89.5258 3.69264C90.4911 3.74964 91.4604 3.82293 92.4217 3.92065C93.3829 4.01837 94.3482 4.13645 95.3013 4.27488C96.2626 4.41332 97.2157 4.57211 98.1689 4.75126C99.122 4.93855 100.071 5.13806 101.02 5.362C101.961 5.58187 102.902 5.83431 103.843 6.09489C104.78 6.35954 105.709 6.64049 106.638 6.954C107.562 7.25937 108.483 7.5851 109.4 7.93118C110.308 8.27727 111.221 8.64372 112.125 9.03052C113.022 9.41732 113.914 9.82855 114.806 10.2561C115.69 10.6795 116.57 11.1274 117.438 11.5916C118.31 12.0557 119.17 12.5402 120.026 13.0451C120.878 13.55 121.721 14.0712 122.557 14.6127C123.392 15.1583 124.216 15.712 125.023 16.2943C125.838 16.8684 126.641 17.4628 127.432 18.0817C130.981 20.8463 134.238 24.1688 137.584 27.2265C136.473 27.2672 135.248 27.2672 134.169 27.5808C132.324 28.1141 130.49 29.4863 129.574 31.347C128.645 33.2362 128.58 35.6018 129.184 37.6173C129.261 37.8819 129.346 38.1384 129.448 38.3868C129.541 38.6352 129.655 38.8795 129.772 39.1156C129.898 39.3599 130.028 39.5879 130.166 39.8078C130.312 40.0277 130.462 40.2435 130.624 40.4511C130.782 40.6588 130.957 40.8542 131.131 41.0456C131.314 41.2329 131.496 41.4039 131.691 41.5789C131.894 41.7459 132.092 41.8965 132.299 42.0431C132.506 42.1897 132.725 42.3281 132.944 42.4462C134.619 43.3745 136.631 43.5537 138.379 42.7801C141.242 41.5138 142.528 38.57 143.583 35.61C154.047 49.3679 159.068 65.5281 161.315 83.0442C160.727 81.9652 160.135 80.8292 159.413 79.8439C157.726 77.572 155.138 75.7275 152.445 75.4588C150.689 75.2837 148.969 75.7357 147.606 77.0101C146.406 78.1338 145.627 79.7543 145.128 81.3748C142.735 89.1312 147.107 95.5603 148.567 102.812C149.164 105.747 149.058 108.48 148.799 111.444C146.308 113.952 143.502 116.501 142.39 120.149C141.956 121.57 141.831 123.105 142.54 124.448C143.368 126.008 144.601 126.663 146.138 127.079C146.256 127.107 146.381 127.14 146.507 127.168C146.519 127.376 146.556 127.583 146.543 127.791C146.357 132.119 136.416 144.912 133.467 148.088L130.989 145.649L128.698 147.567L131.082 151.162C119.097 162.009 106.8 169.289 91.0994 170.738C90.5235 170.787 89.9435 170.828 89.3595 170.857C88.82 170.877 88.2725 170.897 87.733 170.905C87.1936 170.918 86.6461 170.918 86.1066 170.918C85.5672 170.909 85.0197 170.897 84.4802 170.877C83.9408 170.865 83.3932 170.836 82.8538 170.8C82.3144 170.767 81.7749 170.722 81.2355 170.673C80.688 170.624 80.1485 170.567 79.6172 170.506C79.0778 170.437 78.5383 170.368 77.9989 170.291C77.4635 170.213 76.9241 170.124 76.3928 170.034C75.8574 169.936 75.318 169.839 74.7866 169.729C74.2513 169.623 73.724 169.509 73.1927 169.391C72.6573 169.265 72.13 169.142 71.6028 169.004C71.0755 168.866 70.5482 168.719 70.025 168.576C69.4978 168.426 68.9786 168.263 68.4554 168.1C67.9362 167.933 67.413 167.762 66.8939 167.579C66.3788 167.404 65.8637 167.221 65.3486 167.025C64.8416 166.83 64.3265 166.63 63.8155 166.423C63.3085 166.215 62.7974 165.999 62.2945 165.779C61.7916 165.559 61.2886 165.327 60.7938 165.095C60.2909 164.859 59.7961 164.623 59.3053 164.375C58.8105 164.126 58.3197 163.87 57.829 163.605C57.3463 163.34 56.8556 163.08 56.377 162.803C55.8943 162.526 55.4157 162.241 54.9412 161.956C54.4626 161.667 53.9921 161.374 53.5297 161.068C53.0592 160.771 52.5928 160.458 52.1304 160.148C51.6721 159.835 51.2138 159.517 50.7555 159.187C50.3053 158.862 49.851 158.528 49.4049 158.19C48.9587 157.856 48.5126 157.51 48.0745 157.16C47.6365 156.814 47.2025 156.451 46.7686 156.093C46.3346 155.726 45.9087 155.36 45.4869 154.985C45.0651 154.611 44.6473 154.232 44.2296 153.849C43.8159 153.463 43.4022 153.068 43.0006 152.673C42.591 152.278 42.1895 151.875 41.796 151.468L44.2701 148.455C43.5603 147.742 42.9601 147.021 42.015 146.708C40.9402 146.875 40.3765 147.762 39.6667 148.585C36.4666 145.771 26.4972 131.879 26.3593 127.848C26.3147 126.606 29.3242 125.389 30.2002 124.245C30.8897 123.353 31.2345 122.311 31.125 121.126C30.7437 117.005 26.5986 113.813 23.8852 111.493C23.6094 108.887 23.4715 106.126 23.9623 103.533C25.3251 96.3624 29.5107 90.1166 28.079 82.4131C27.6207 79.9701 26.4485 77.971 24.5179 76.6355C22.8023 75.4507 21.1353 74.9743 19.1642 75.5321C15.4855 76.5866 13.3561 79.5711 11.4742 82.9628C13.855 65.6503 18.7829 48.7287 29.3242 35.2191ZM21.2245 100.711C20.677 103.191 20.5634 105.857 20.1578 108.386C19.3061 108.28 18.7829 107.555 18.1258 106.961C16.0046 104.868 14.1592 102.743 12.9708 99.807C11.2957 95.6458 11.6202 90.9879 13.1168 86.8267C14.5486 82.8162 16.7144 80.2307 20.312 78.5899C21.8329 78.8586 23.0132 79.3512 23.942 80.7845C27.6329 86.4725 22.4859 95.0188 21.2245 100.711ZM149.577 139.171C139.101 157.685 121.961 172.302 102.557 177.241C101.985 177.391 101.401 177.53 100.825 177.664C100.25 177.795 99.6655 177.921 99.0814 178.039C98.4974 178.149 97.9133 178.259 97.3293 178.356C96.7452 178.462 96.1612 178.552 95.5731 178.633C94.985 178.723 94.4009 178.8 93.8088 178.861C93.2166 178.931 92.6285 178.992 92.0404 179.04C91.4523 179.097 90.8601 179.138 90.272 179.179C89.6799 179.216 89.0837 179.24 88.4956 179.26C87.9075 179.281 87.3072 179.289 86.7191 179.297C86.131 179.305 85.5307 179.297 84.9426 179.285C84.3545 179.273 83.7542 179.256 83.1661 179.224C82.574 179.195 81.9859 179.163 81.3978 179.118C80.8096 179.069 80.2175 179.02 79.6294 178.959C79.0413 178.898 78.4491 178.829 77.861 178.751C77.2729 178.674 76.6889 178.593 76.0967 178.503C75.5126 178.405 74.9286 178.308 74.3446 178.198C73.7605 178.092 73.1765 177.978 72.5924 177.852C72.0165 177.725 71.4324 177.595 70.8524 177.457C70.2765 177.31 69.6965 177.168 69.1246 177.013C68.5487 176.854 67.9768 176.687 67.4049 176.52C66.833 176.345 66.2612 176.166 65.6893 175.979C65.1255 175.791 64.5577 175.596 63.9939 175.396C63.4342 175.197 62.8704 174.981 62.3107 174.765C61.751 174.549 61.1994 174.321 60.6478 174.093C60.0881 173.857 59.5446 173.617 58.989 173.373C58.4414 173.124 57.8979 172.868 57.3585 172.603C56.8109 172.339 56.2796 172.07 55.7402 171.793C55.2048 171.516 54.6735 171.231 54.1381 170.942C53.6108 170.653 53.0836 170.352 52.5644 170.05C52.0372 169.737 51.5221 169.427 51.0029 169.11C50.4878 168.792 49.9727 168.467 49.4657 168.124C48.9587 167.791 48.4558 167.453 47.9529 167.107C47.0119 166.447 46.0872 165.775 45.1705 165.079C44.262 164.379 43.3616 163.666 42.4774 162.925C41.5932 162.184 40.7212 161.423 39.8654 160.641C39.0137 159.863 38.1701 159.061 37.3467 158.243C36.5193 157.416 35.7081 156.581 34.9172 155.722C34.1263 154.863 33.3557 153.992 32.5932 153.088C31.8348 152.196 31.0925 151.288 30.3706 150.352C29.6486 149.424 28.9389 148.475 28.2534 147.51C27.568 146.549 26.8987 145.572 26.2498 144.578C25.6049 143.581 24.9762 142.571 24.3598 141.545C23.7514 140.527 23.1673 139.489 22.5954 138.434C22.0236 137.38 21.4801 136.313 20.9487 135.242C20.4134 134.163 19.9145 133.076 19.4237 131.973C18.9411 130.873 18.4747 129.758 18.0285 128.634C17.5905 127.51 17.1605 126.374 16.7671 125.234C16.3656 124.09 15.9884 122.942 15.6355 121.777C13.8956 116.118 12.8937 110.279 11.6851 104.461C14.6094 109.143 18.3895 111.81 22.5833 114.941C24.0637 116.175 25.8483 117.461 26.9028 119.172C27.4868 120.112 27.7383 121.313 27.5071 122.433C27.3814 123.027 27.4017 122.84 26.8541 123.235C24.5179 123.145 21.9952 119.542 19.8983 118.219C19.7725 118.141 19.6549 118.072 19.5292 117.999C21.6017 124.843 24.0353 131.61 27.4503 137.783C36.9817 155.022 53.3269 167.852 71.1039 172.453C71.6393 172.591 72.1706 172.717 72.706 172.835C73.2413 172.962 73.7727 173.072 74.3121 173.181C74.8515 173.287 75.3869 173.381 75.9264 173.479C76.4658 173.568 77.0052 173.654 77.5528 173.735C78.0922 173.813 78.6316 173.882 79.1792 173.943C79.7186 174.004 80.2662 174.061 80.8096 174.11C81.3491 174.159 81.8966 174.199 82.4401 174.236C82.9877 174.269 83.5312 174.297 84.0787 174.317C84.6262 174.33 85.1697 174.346 85.7173 174.35C86.2648 174.35 86.8083 174.35 87.3559 174.342C87.9034 174.33 88.4428 174.313 88.9863 174.285C89.5339 174.264 90.0774 174.228 90.6249 174.187C91.1724 174.15 91.7119 174.106 92.2554 174.049C92.8029 173.992 93.3423 173.939 93.8858 173.87C94.4253 173.8 94.9647 173.723 95.5123 173.642C96.0517 173.56 96.5911 173.466 97.1305 173.373C97.6659 173.275 98.2054 173.173 98.7448 173.055C99.2802 172.945 99.8115 172.827 100.347 172.701C100.882 172.575 101.414 172.436 101.949 172.298C102.476 172.159 103.012 172.013 103.539 171.854C104.066 171.703 104.593 171.541 105.117 171.37C105.644 171.203 106.163 171.023 106.686 170.844C107.205 170.665 107.72 170.47 108.236 170.278C108.755 170.079 109.27 169.875 109.781 169.668C110.296 169.452 110.803 169.24 111.306 169.016C111.813 168.788 112.324 168.56 112.819 168.324C113.322 168.084 113.825 167.839 114.319 167.591C114.814 167.343 115.313 167.078 115.8 166.813C116.287 166.549 116.777 166.28 117.264 166.003C117.747 165.726 118.229 165.441 118.708 165.152C119.186 164.863 119.661 164.562 120.132 164.261C120.602 163.963 121.072 163.65 121.539 163.332C136.31 153.178 149.366 136.248 153.333 117.262C151.256 118.911 148.9 122.999 146.377 123.276C145.712 122.873 145.736 122.869 145.469 122.083C145.927 116.855 154.189 111.896 157.498 108.748C158.813 107.494 159.867 106.041 160.913 104.53C161.197 113.272 153.763 131.773 149.577 139.171ZM155.949 105.866L152.627 108.671C152.4 100.186 147.164 91.6719 147.712 84.8764C147.927 82.2502 148.778 80.6094 150.62 78.9807C151.009 78.9319 151.39 78.8912 151.78 78.883C153.771 78.826 155.633 80.1289 156.983 81.6476C159.668 84.681 161.384 90.0351 161.36 94.233C161.327 99.0782 158.906 102.616 155.949 105.866Z" fill="#345253"/>
<path d="M20.1786 83.3359C20.4341 83.625 20.4584 83.6291 20.6856 84.024C22.6446 87.4808 19.0632 94.9726 18.2561 98.7429L17.8586 98.7999C17.0393 97.4644 16.362 96.0353 15.6562 94.6224C16.2646 90.4124 17.7045 86.6258 20.1786 83.3359Z" fill="#345253"/>
<path d="M151.942 83.8672C152.343 84.0056 152.761 84.1278 153.114 84.3924C155.061 85.8378 156.322 89.9217 156.756 92.3728C157.239 95.0763 157.141 96.2571 155.754 98.5453C155.576 98.7326 155.308 98.8385 155.085 98.9606C154.85 98.639 154.74 98.5209 154.566 98.1015C153.564 95.7034 151.337 88.3378 151.431 85.7971C151.459 85.1375 151.714 84.4698 151.942 83.8672Z" fill="#345253"/>
<path d="M82.4039 8.46957C97.8568 7.05266 111.769 12.871 124.362 22.1868L122.31 24.6705C112.393 17.7325 102.184 12.586 90.252 12.0363C75.4724 11.2301 62.1285 15.0737 50.0257 24.6298C49.3443 23.787 48.7075 22.8912 48.0586 22.024C57.5656 13.4736 70.3417 9.34497 82.4039 8.46957Z" fill="#345253"/>
<path d="M55.4932 93.6207L56.0286 93.5352L56.1908 93.7957C55.6798 94.2803 55.1809 94.777 54.6658 95.2534C53.0962 96.6988 52.0781 98.4252 51.0682 100.371C47.6856 106.878 45.6536 116.613 48.6306 123.71C49.4337 125.628 51.3967 127.688 51.8713 129.634C52.3418 131.56 51.6117 133.767 51.6685 135.75C51.7172 137.48 52.3377 139.398 52.7514 141.071C49.0646 136.69 48.2088 132.863 47.5031 127.11C46.5013 128.97 46.0633 130.18 45.8807 132.354C45.8199 133.075 45.7591 133.742 45.6049 134.451L45.0331 133.917C41.476 126.161 44.2624 121.128 45.3859 113.531L45.0087 113.266C41.833 115.611 41.9344 119.94 40.8271 120.819C39.9997 119.96 40.166 118.852 40.2512 117.668C40.8393 109.52 48.1236 101.715 48.0263 99.6141C46.7203 99.5896 45.1791 100.648 43.8934 101.121L43.5892 100.84C43.7352 100.4 43.8731 99.9683 44.0961 99.5652C46.266 95.628 51.7172 94.4594 55.4932 93.6207Z" fill="url(#paint0_linear_234_5)"/>
<path d="M99.698 114.351C101.045 114.27 102.245 114.27 103.442 115.048C105.591 116.444 106.114 119.327 106.694 121.782C103.433 121.933 100.623 122.613 97.6619 124.156C92.9165 126.627 88.8038 129.872 86.9949 135.491C87.6479 136.998 88.2969 138.484 88.528 140.153C88.962 143.337 87.8061 145.589 86.1229 148.036C86.8246 148.304 87.5303 148.573 88.2157 148.887C92.8313 151.004 94.4375 153.968 96.2951 158.813C92.6488 154.18 90.1829 153.683 85.259 151.68C85.332 152.897 85.3726 154.123 85.5145 155.336C86.1229 160.58 88.7146 163.834 92.3162 166.94L91.1725 166.427C90.8358 166.277 90.4952 166.13 90.1626 165.975C85.0238 163.577 82.8498 159.66 80.8178 154.188C80.254 155.332 79.7268 156.521 79.3252 157.747C78.3964 160.58 78.6803 163.296 79.8282 165.963C80.0553 166.492 80.0472 166.224 79.9296 166.72L79.163 166.02C78.3031 164.921 77.5244 163.679 76.9566 162.368C75.3383 158.618 75.7074 155.08 76.9079 151.293C74.3811 152.596 71.6515 154.033 70.309 156.916C69.0557 159.611 70.1549 161.419 70.8444 164.025C69.4491 162.409 68.5528 160.65 68.2161 158.418C67.4536 153.325 70.4509 150.12 72.7871 146.301C68.5771 148.3 66.9264 150.442 64.793 154.827L64.8457 154.461C65.1823 152.136 65.4825 150.141 66.4802 148.003C67.5672 145.67 69.2747 143.569 71.6434 142.877C74.8313 141.945 77.2973 143.553 79.962 145.23C80.7651 144.184 81.5641 143.068 81.8358 141.7C82.4807 138.5 79.9296 135.361 78.5303 132.743C82.432 124.563 92.0242 117.531 99.698 114.351Z" fill="url(#paint1_linear_234_5)"/>
<path d="M131.103 112.552C129.683 107.613 123.336 106.534 122.265 102.918C124.269 101.4 126.714 103.431 128.799 102.511C128.868 101.62 128.527 101.188 128.016 100.528C125.607 97.4258 121.62 97.1408 118.181 96.8232C120.428 92.6376 120.837 87.6255 121.653 82.9227C124.183 82.4708 126.171 81.3715 127.753 79.0791C129.76 76.1557 129.955 72.3406 129.424 68.8431C129.322 68.1347 129.197 67.4303 129.047 66.73C128.9 66.0296 128.734 65.3293 128.544 64.6453C128.357 63.9531 128.146 63.2732 127.915 62.6014C127.688 61.9295 127.436 61.2659 127.169 60.6063C126.897 59.9548 126.609 59.3115 126.301 58.6723C125.992 58.0412 125.668 57.4182 125.323 56.8075C124.978 56.1967 124.622 55.6023 124.236 55.02C123.855 54.4296 123.457 53.8637 123.044 53.3099C124.411 58.3791 127.205 66.2577 124.881 71.3757C124.123 69.6004 124.792 65.9645 124.443 63.7821C124.171 62.1616 119.101 45.7083 118.607 45.3215C118.092 47.2962 118.274 49.5478 118.104 51.6039C117.864 54.4581 117.439 57.2838 117.224 60.138C116.984 63.3587 117.009 66.6648 116.469 69.8407C115.966 64.8326 115.642 60.5248 116.725 55.5493C109.209 71.4123 118.424 77.8455 112.105 92.4422C110.126 91.4446 108.151 90.4471 106.123 89.5798L109.477 87.1816C106.139 86.5017 102.018 85.8665 98.6476 86.4488C97.8891 86.5791 97.0901 87.3974 96.4899 87.8983L95.8125 87.9268C95.0216 87.0961 94.8067 86.4732 94.7783 85.2517C94.7174 82.5074 95.342 80.0686 96.1411 77.5157C97.0658 78.7412 97.8486 79.9057 98.534 81.3104C98.4894 82.7802 98.4326 84.2053 98.5705 85.667L98.9599 86.1027C100.347 85.2843 101.251 82.597 101.629 81.005C102.428 77.6297 98.8747 69.9302 100.404 67.7397C101.471 67.9392 102.326 69.1526 102.902 70.1013C103.45 70.9889 103.649 71.8968 103.843 72.927L104.143 72.9595C105.417 70.5776 104.922 67.2674 104.302 64.7104C103.649 62.0232 102.059 58.6234 102.695 55.8425L103.235 55.476C105.344 56.0705 106.398 58.033 107.453 59.963C107.615 60.2683 107.777 60.5737 107.944 60.8791C108.049 57.52 108.228 52.9598 106.009 50.297C104.403 48.3629 102.537 46.9175 101.629 44.3687L101.734 43.6887C103.158 43.135 105.21 44.2099 106.536 44.9021C106.849 45.0609 107.157 45.2359 107.465 45.407C106.776 42.9558 105.814 38.986 103.511 37.8297C101.381 36.7629 98.4691 36.8118 96.5669 35.3094C96.8873 34.3322 97.6661 33.583 98.5462 33.1758C98.9275 32.9967 99.3371 32.8868 99.7346 32.7524L101.544 32.1579C101.26 31.4454 100.623 31.1726 99.982 30.8917C96.4047 29.2834 93.1316 30.2891 89.826 32.0399C88.9581 32.504 88.1428 33.0496 87.3276 33.6278C88.1875 32.2964 89.0595 30.9039 90.2073 29.8616C91.5498 28.6441 93.7684 27.5 94.8391 26.0465C95.4678 25.1955 95.4353 23.9455 95.2528 22.9276C94.6607 19.7151 93.4398 16.2176 92.3285 13.168C92.3853 15.8959 92.5435 18.6687 92.4664 21.3885C86.922 25.8062 83.7463 27.6425 80.2744 34.495C78.863 37.2882 77.557 40.1139 75.7156 42.6057C75.6912 38.1676 75.3384 32.4104 78.3397 28.9739C79.6133 27.5245 80.826 26.4455 81.1586 24.3527L80.7692 23.9292L79.305 24.0677C79.9459 21.0425 82.2293 16.8365 81.3695 13.738C77.4475 21.5921 71.6435 27.7932 68.0378 35.8753C66.0545 40.3174 62.2054 52.7358 59.5934 55.3539C54.9778 59.9792 45.0814 59.7594 47.2311 69.3887C47.4582 70.3863 47.9287 71.2657 48.752 71.8073C50.3703 72.874 52.6619 72.4017 54.3451 71.7869C59.2649 69.9872 63.8359 66.2169 68.3704 63.4523C64.931 68.5296 61.0698 73.501 56.3244 77.1533L56.1865 77.7355C57.0788 78.8633 58.6727 79.1199 59.9544 79.4252C62.8503 77.7559 65.2717 75.6631 67.4172 72.9473C71.3839 67.9189 80.4366 48.7335 87.8751 51.608C89.1325 52.0925 89.972 53.3385 90.3857 54.6902C91.5782 58.5012 90.0288 62.8701 88.4146 66.2658C81.2519 81.3226 67.2469 78.3178 57.6871 90.0155C61.6741 88.2769 65.661 86.8844 69.8386 85.8584C61.3577 91.3917 53.1892 98.065 50.6299 109.152C49.2793 115.007 49.6362 121.289 52.4956 126.55C54.337 129.938 58.3199 132.755 61.7674 133.545C66.9143 134.718 72.2194 132.486 76.4132 129.286C82.4768 124.665 94.5755 110.162 102.566 111.909C104.456 112.324 105.968 113.798 106.954 115.581C111.493 123.777 103.352 147.747 111.529 149.217C112.592 149.404 113.521 148.899 114.291 148.15C118.631 143.911 121.442 131.745 121.571 125.557C121.746 117.169 119.312 107.145 113.942 100.972C110.677 97.2182 106.524 95.0154 101.783 94.934C92.1095 94.7752 83.3123 101.729 76.7336 108.912C73.5822 112.36 69.2586 118.859 64.3997 118.777C63.1504 118.757 61.8647 118.293 60.9765 117.295C60.2221 116.448 59.8773 115.312 59.9422 114.144C60.0923 111.102 62.5867 108.354 64.6146 106.518C68.4555 103.041 73.0387 100.817 77.3501 98.1831C76.8675 99.9339 76.4335 102.69 74.9206 103.704C74.3163 104.107 73.4767 103.794 72.8237 103.647C71.8463 103.427 71.2176 103.59 70.4064 104.238C67.908 106.225 68.3907 112.849 66.095 113.761C65.657 113.525 65.4866 113.574 65.3122 113.02C64.8782 111.607 65.2636 109.624 65.4136 108.171C63.7426 110.337 62.3271 112.417 61.9499 115.312C63.0531 116.249 63.9819 116.656 65.3974 116.44C68.7313 115.927 76.547 105.463 79.6782 102.552C88.5606 94.3029 101.73 88.11 112.397 96.2328C118.655 100.997 121.981 109.295 123.247 117.34C124.256 123.818 123.202 129.469 122.63 135.874C125.79 132.8 128.211 129.078 128.564 124.286C128.75 121.725 126.8 116.395 128.073 114.575C129.687 115.141 130.527 118.419 131.565 118.427C132.271 116.831 131.573 114.205 131.103 112.552ZM69.7818 54.165C69.575 54.1243 69.36 54.1161 69.1613 54.0388C68.4069 53.7619 68.3217 53.3873 68.0702 52.6544C68.2446 51.4899 68.7151 50.924 69.3843 50.0567C70.3213 50.3825 70.7796 50.5128 71.2622 51.4492C71.1122 52.6218 70.447 53.3059 69.7818 54.165Z" fill="url(#paint2_linear_234_5)"/>
</g>
<defs>
<linearGradient id="paint0_linear_234_5" x1="48.1843" y1="93.5352" x2="48.1843" y2="141.071" gradientUnits="userSpaceOnUse">
<stop stop-color="#ECC54A"/>
<stop offset="1" stop-color="#DFB13E"/>
</linearGradient>
<linearGradient id="paint1_linear_234_5" x1="85.7437" y1="114.316" x2="85.7437" y2="166.94" gradientUnits="userSpaceOnUse">
<stop stop-color="#ECC54A"/>
<stop offset="1" stop-color="#DFB13E"/>
</linearGradient>
<linearGradient id="paint2_linear_234_5" x1="89.3976" y1="13.168" x2="89.3976" y2="149.256" gradientUnits="userSpaceOnUse">
<stop stop-color="#ECC54A"/>
<stop offset="1" stop-color="#DFB13E"/>
</linearGradient>
<clipPath id="clip0_234_5">
<rect width="173" height="184" fill="white"/>
</clipPath>
</defs>
</svg>
