<svg width="27" height="24" viewBox="0 0 27 24" fill="none" xmlns="http://www.w3.org/2000/svg">
<path d="M27 24H0V0H27V24Z" stroke="#E5E7EB"/>
<path d="M25.7643 5.81639C25.4699 4.7078 24.6024 3.8347 23.501 3.53841C21.5046 3 13.4992 3 13.4992 3C13.4992 3 5.49392 3 3.49747 3.53841C2.39605 3.83475 1.52858 4.7078 1.23416 5.81639C0.699219 7.82578 0.699219 12.0182 0.699219 12.0182C0.699219 12.0182 0.699219 16.2106 1.23416 18.22C1.52858 19.3286 2.39605 20.1653 3.49747 20.4616C5.49392 21 13.4992 21 13.4992 21C13.4992 21 21.5045 21 23.501 20.4616C24.6024 20.1653 25.4699 19.3286 25.7643 18.22C26.2993 16.2106 26.2993 12.0182 26.2993 12.0182C26.2993 12.0182 26.2993 7.82578 25.7643 5.81639ZM10.881 15.8246V8.2118L17.5719 12.0183L10.881 15.8246Z" fill="white"/>
</svg>
