<svg width="28" height="28" viewBox="0 0 28 28" fill="none" xmlns="http://www.w3.org/2000/svg">
<path fill-rule="evenodd" clip-rule="evenodd" d="M7.32134 10.0939C7.5219 9.90093 7.79087 9.79549 8.06914 9.80074C8.3474 9.80599 8.6122 9.9215 8.80534 10.1219L13.9993 15.6351L19.1933 10.1219C19.2878 10.0178 19.4021 9.93374 19.5296 9.87466C19.6571 9.81558 19.7952 9.78269 19.9356 9.77794C20.076 9.7732 20.216 9.79669 20.3472 9.84703C20.4784 9.89737 20.5982 9.97353 20.6994 10.071C20.8006 10.1685 20.8812 10.2853 20.9365 10.4145C20.9917 10.5437 21.0205 10.6827 21.021 10.8232C21.0216 10.9637 20.9939 11.1029 20.9397 11.2326C20.8855 11.3622 20.8058 11.4796 20.7053 11.5779L14.7553 17.8779C14.6574 17.9795 14.54 18.0603 14.4101 18.1156C14.2802 18.1708 14.1405 18.1992 13.9993 18.1992C13.8582 18.1992 13.7185 18.1708 13.5886 18.1156C13.4587 18.0603 13.3413 17.9795 13.2433 17.8779L7.29334 11.5779C7.10038 11.3773 6.99494 11.1084 7.00019 10.8301C7.00544 10.5518 7.12095 10.287 7.32134 10.0939Z" fill="white"/>
</svg>
