<svg width="45" height="36" viewBox="0 0 45 36" fill="none" xmlns="http://www.w3.org/2000/svg">
<g clip-path="url(#clip0_60_204)">
<path d="M14.8926 0C15.441 0 15.8981 0.400781 16.0668 0.928125C16.9316 3.64922 19.484 5.625 22.5004 5.625C25.5168 5.625 28.0691 3.64922 28.934 0.928125C29.1027 0.400781 29.5598 0 30.1082 0H30.9941C32.5762 0 34.102 0.555469 35.3184 1.56797L44.1918 8.95781C44.6559 9.34453 44.9441 9.90703 44.9934 10.5117C45.0426 11.1164 44.8457 11.7141 44.4449 12.1711L40.5074 16.6711C39.7059 17.5922 38.3137 17.6977 37.3715 16.9172L33.7504 13.9008V31.5C33.7504 33.982 31.7324 36 29.2504 36H15.7504C13.2684 36 11.2504 33.982 11.2504 31.5V13.9008L7.6293 16.9172C6.69414 17.6977 5.30196 17.5922 4.49336 16.6711L0.555863 12.1711C0.155082 11.7141 -0.0417932 11.1164 0.00742555 10.5117C0.0566443 9.90703 0.344926 9.34453 0.808988 8.95781L9.68243 1.56797C10.8988 0.555469 12.4246 0 14.0066 0H14.8926Z" fill="white"/>
</g>
<defs>
<clipPath id="clip0_60_204">
<path d="M0 0H45V36H0V0Z" fill="white"/>
</clipPath>
</defs>
</svg>
