<svg width="21" height="24" viewBox="0 0 21 24" fill="none" xmlns="http://www.w3.org/2000/svg">
<g clip-path="url(#clip0_60_255)">
<path d="M10.5 12C7.81875 12 5.55 10.2422 4.78125 7.81406C4.72969 7.875 4.67812 7.93594 4.61719 7.99219C3.87656 8.73281 2.79844 8.9625 2.10469 9.02813C1.725 9.06563 1.42031 8.76094 1.45781 8.38125C1.52344 7.69219 1.75313 6.60938 2.49375 5.86875C2.76562 5.59687 3.08438 5.39531 3.4125 5.24063C3.08438 5.09063 2.76562 4.88438 2.49375 4.6125C1.75313 3.87656 1.52813 2.79844 1.45781 2.10469C1.42031 1.725 1.725 1.42031 2.10469 1.45781C2.79375 1.52344 3.87656 1.75313 4.61719 2.49375C4.84219 2.71875 5.025 2.98125 5.16562 3.24844C6.15937 1.32188 8.175 0 10.5 0C13.8141 0 16.5 2.68594 16.5 6C16.5 9.31406 13.8141 12 10.5 12ZM0 22.6078C0 18.7266 2.64375 15.4688 6.225 14.5266C6.50625 14.4516 6.79688 14.5688 6.97031 14.7984L9.9 18.7031C10.2 19.1016 10.8 19.1016 11.1 18.7031L14.0297 14.7984C14.2031 14.5688 14.4938 14.4516 14.775 14.5266C18.3563 15.4688 21 18.7266 21 22.6078C21 23.3766 20.3766 24 19.6078 24H1.39219C0.623438 24 0 23.3766 0 22.6078ZM7.5 4.5C7.0875 4.5 6.75 4.8375 6.75 5.25C6.75 5.6625 7.0875 6 7.5 6H13.5C13.9125 6 14.25 5.6625 14.25 5.25C14.25 4.8375 13.9125 4.5 13.5 4.5H7.5Z" fill="black"/>
</g>
<defs>
<clipPath id="clip0_60_255">
<path d="M0 0H21V24H0V0Z" fill="white"/>
</clipPath>
</defs>
</svg>
