<svg width="41" height="36" viewBox="0 0 41 36" fill="none" xmlns="http://www.w3.org/2000/svg">
<g clip-path="url(#clip0_60_210)">
<path d="M21.7266 7.45312C22.5281 6.96094 23.0625 6.06797 23.0625 5.0625C23.0625 3.50859 21.8039 2.25 20.25 2.25C18.6961 2.25 17.4375 3.50859 17.4375 5.0625C17.4375 6.075 17.9719 6.96094 18.7734 7.45312L14.7445 15.5109C14.1047 16.7906 12.4453 17.1562 11.3273 16.2633L5.0625 11.25C5.41406 10.7789 5.625 10.1953 5.625 9.5625C5.625 8.00859 4.36641 6.75 2.8125 6.75C1.25859 6.75 0 8.00859 0 9.5625C0 11.1164 1.25859 12.375 2.8125 12.375C2.82656 12.375 2.84766 12.375 2.86172 12.375L6.075 30.0516C6.46172 32.1891 8.325 33.75 10.5047 33.75H29.9953C32.168 33.75 34.0312 32.1961 34.425 30.0516L37.6383 12.375C37.6523 12.375 37.6734 12.375 37.6875 12.375C39.2414 12.375 40.5 11.1164 40.5 9.5625C40.5 8.00859 39.2414 6.75 37.6875 6.75C36.1336 6.75 34.875 8.00859 34.875 9.5625C34.875 10.1953 35.0859 10.7789 35.4375 11.25L29.1727 16.2633C28.0547 17.1562 26.3953 16.7906 25.7555 15.5109L21.7266 7.45312Z" fill="white"/>
</g>
<defs>
<clipPath id="clip0_60_210">
<path d="M0 0H40.5V36H0V0Z" fill="white"/>
</clipPath>
</defs>
</svg>
